<svg xmlns="http://www.w3.org/2000/svg" width="49.773" height="39.43" viewBox="0 0 49.773 39.43"><defs><style>.a{fill:#cc0721;}</style></defs><path class="a" d="M-28069.641-27618.93c-.795-1.359.209-2.215.873-3.422s1.139-2.1,1.809-3.262c1.783-3.062,4.229-8.027,5.844-10.57l23.818.027a31.253,31.253,0,0,1-2.068,3.961,31.6,31.6,0,0,0-2.1,3.785c-2.133.072-4.361.035-6.609-.018-2.877-.061-5.8-.123-8.635.09-1.471,2.447-8.3,15.232-9.172,15.967C-28067.143-27614.121-28068.381-27616.758-28069.641-27618.93Zm17.178-1.578c1.445-.008,3.123,0,4.873.02,3.656.027,7.613.055,10.412-.055.838-1.434,12.406-22.547,13.051-23.156a39.829,39.829,0,0,1,2.146,3.824c2.74,4.855,2.709,2.6-2.326,11.7l-8.543,15.434-23.732.027A88.008,88.008,0,0,1-28052.463-27620.508Zm-6.24-23.574c.092-.645,3.563-7,3.99-7.719l26.063.07a69.126,69.126,0,0,1,4.244,7.66Z" transform="translate(28069.933 27651.802)"/></svg>